<svg xmlns="http://www.w3.org/2000/svg" width="128" height="128" viewBox="0 0 128 128">
  <rect x="4" y="4" width="120" height="120" rx="22" fill="#1e3a5f"/>
  <g stroke="#9cc4ef" stroke-width="3" stroke-linecap="round">
    <line x1="22" y1="24" x2="22" y2="104"/>
    <line x1="52" y1="24" x2="52" y2="104"/>
  </g>
  <g stroke="#ffffff" stroke-width="4" stroke-linecap="round" fill="none">
    <line x1="22" y1="44" x2="46" y2="44"/>
    <polyline points="40,38 47,44 40,50"/>
    <line x1="52" y1="74" x2="28" y2="74"/>
    <polyline points="34,68 27,74 34,80"/>
  </g>
  <line x1="66" y1="20" x2="66" y2="108" stroke="#5b7fa8" stroke-width="2"/>
  <g fill="#ffb454">
    <rect x="76" y="38" width="36" height="8" rx="3"/>
    <rect x="76" y="68" width="36" height="8" rx="3"/>
  </g>
  <g fill="#9cc4ef">
    <rect x="76" y="52" width="28" height="5" rx="2.5"/>
    <rect x="76" y="82" width="32" height="5" rx="2.5"/>
    <rect x="76" y="92" width="22" height="5" rx="2.5"/>
  </g>
  <g stroke="#ffb454" stroke-width="2" stroke-dasharray="3 3">
    <line x1="48" y1="42" x2="74" y2="42"/>
    <line x1="54" y1="72" x2="74" y2="72"/>
  </g>
</svg>
